<mxfile host="app.diagrams.net" modified="2022-11-01T12:55:57.057Z" agent="5.0 (Macintosh; Intel Mac OS X 10_15_7) AppleWebKit/537.36 (KHTML, like Gecko) Chrome/106.0.0.0 Safari/537.36" etag="nmpNNog6etUPckxXVCsf" version="20.4.2" type="github">
  <diagram id="15aEQ0znDnukXjt3zubc" name="第 1 页">
    <mxGraphModel dx="2864" dy="1180" grid="1" gridSize="10" guides="1" tooltips="1" connect="1" arrows="1" fold="1" page="1" pageScale="1" pageWidth="827" pageHeight="1169" math="0" shadow="0">
      <root>
        <mxCell id="0" />
        <mxCell id="1" parent="0" />
        <mxCell id="YbRW3t3wzOD-6tZSNNCx-9" style="edgeStyle=none;rounded=0;orthogonalLoop=1;jettySize=auto;html=1;startArrow=classic;startFill=1;entryX=0.5;entryY=0;entryDx=0;entryDy=0;" parent="1" source="YbRW3t3wzOD-6tZSNNCx-2" target="YbRW3t3wzOD-6tZSNNCx-10" edge="1">
          <mxGeometry relative="1" as="geometry">
            <mxPoint x="180" y="370" as="targetPoint" />
          </mxGeometry>
        </mxCell>
        <mxCell id="YbRW3t3wzOD-6tZSNNCx-11" value="child / return" style="edgeLabel;html=1;align=center;verticalAlign=middle;resizable=0;points=[];" parent="YbRW3t3wzOD-6tZSNNCx-9" vertex="1" connectable="0">
          <mxGeometry x="-0.0045" y="-2" relative="1" as="geometry">
            <mxPoint as="offset" />
          </mxGeometry>
        </mxCell>
        <mxCell id="YbRW3t3wzOD-6tZSNNCx-2" value="App" style="ellipse;whiteSpace=wrap;html=1;aspect=fixed;" parent="1" vertex="1">
          <mxGeometry x="180" y="190" width="80" height="80" as="geometry" />
        </mxCell>
        <mxCell id="YbRW3t3wzOD-6tZSNNCx-3" value="Root" style="ellipse;whiteSpace=wrap;html=1;aspect=fixed;" parent="1" vertex="1">
          <mxGeometry x="260" y="30" width="80" height="80" as="geometry" />
        </mxCell>
        <mxCell id="YbRW3t3wzOD-6tZSNNCx-5" style="edgeStyle=none;rounded=0;orthogonalLoop=1;jettySize=auto;html=1;exitX=0.5;exitY=0;exitDx=0;exitDy=0;" parent="1" source="YbRW3t3wzOD-6tZSNNCx-2" target="YbRW3t3wzOD-6tZSNNCx-2" edge="1">
          <mxGeometry relative="1" as="geometry" />
        </mxCell>
        <mxCell id="YbRW3t3wzOD-6tZSNNCx-7" value="child / return" style="endArrow=classic;startArrow=classic;html=1;rounded=0;exitX=0.5;exitY=0;exitDx=0;exitDy=0;entryX=0.5;entryY=1;entryDx=0;entryDy=0;" parent="1" source="YbRW3t3wzOD-6tZSNNCx-2" target="YbRW3t3wzOD-6tZSNNCx-3" edge="1">
          <mxGeometry width="50" height="50" relative="1" as="geometry">
            <mxPoint x="340" y="170" as="sourcePoint" />
            <mxPoint x="390" y="120" as="targetPoint" />
          </mxGeometry>
        </mxCell>
        <mxCell id="YbRW3t3wzOD-6tZSNNCx-15" value="child / return" style="edgeStyle=none;rounded=0;orthogonalLoop=1;jettySize=auto;html=1;entryX=0.5;entryY=0;entryDx=0;entryDy=0;startArrow=classic;startFill=1;" parent="1" source="YbRW3t3wzOD-6tZSNNCx-10" target="YbRW3t3wzOD-6tZSNNCx-14" edge="1">
          <mxGeometry relative="1" as="geometry" />
        </mxCell>
        <mxCell id="YbRW3t3wzOD-6tZSNNCx-10" value="container" style="ellipse;whiteSpace=wrap;html=1;aspect=fixed;" parent="1" vertex="1">
          <mxGeometry x="120" y="350" width="80" height="80" as="geometry" />
        </mxCell>
        <mxCell id="YbRW3t3wzOD-6tZSNNCx-16" value="sibling" style="edgeStyle=none;rounded=0;orthogonalLoop=1;jettySize=auto;html=1;exitX=1;exitY=0.5;exitDx=0;exitDy=0;startArrow=none;startFill=0;entryX=0;entryY=0.5;entryDx=0;entryDy=0;" parent="1" source="YbRW3t3wzOD-6tZSNNCx-14" target="YbRW3t3wzOD-6tZSNNCx-17" edge="1">
          <mxGeometry relative="1" as="geometry">
            <mxPoint x="250" y="545" as="targetPoint" />
            <Array as="points">
              <mxPoint x="190" y="545" />
            </Array>
          </mxGeometry>
        </mxCell>
        <mxCell id="YbRW3t3wzOD-6tZSNNCx-14" value="a" style="ellipse;whiteSpace=wrap;html=1;aspect=fixed;labelBackgroundColor=none;" parent="1" vertex="1">
          <mxGeometry x="70" y="505" width="80" height="80" as="geometry" />
        </mxCell>
        <mxCell id="YbRW3t3wzOD-6tZSNNCx-18" value="&lt;span style=&quot;font-size: 11px;&quot;&gt;sibling&lt;/span&gt;" style="edgeStyle=none;rounded=0;orthogonalLoop=1;jettySize=auto;html=1;startArrow=none;startFill=0;entryX=0;entryY=0.5;entryDx=0;entryDy=0;" parent="1" source="YbRW3t3wzOD-6tZSNNCx-17" target="YbRW3t3wzOD-6tZSNNCx-19" edge="1">
          <mxGeometry relative="1" as="geometry">
            <mxPoint x="380" y="545" as="targetPoint" />
          </mxGeometry>
        </mxCell>
        <mxCell id="YbRW3t3wzOD-6tZSNNCx-23" value="return" style="edgeStyle=none;rounded=0;orthogonalLoop=1;jettySize=auto;html=1;startArrow=none;startFill=0;entryX=1;entryY=1;entryDx=0;entryDy=0;" parent="1" source="YbRW3t3wzOD-6tZSNNCx-17" target="YbRW3t3wzOD-6tZSNNCx-10" edge="1">
          <mxGeometry relative="1" as="geometry">
            <mxPoint x="180" y="420" as="targetPoint" />
          </mxGeometry>
        </mxCell>
        <mxCell id="YbRW3t3wzOD-6tZSNNCx-17" value="b" style="ellipse;whiteSpace=wrap;html=1;aspect=fixed;labelBackgroundColor=none;" parent="1" vertex="1">
          <mxGeometry x="230" y="505" width="80" height="80" as="geometry" />
        </mxCell>
        <mxCell id="YbRW3t3wzOD-6tZSNNCx-20" style="edgeStyle=none;rounded=0;orthogonalLoop=1;jettySize=auto;html=1;startArrow=none;startFill=0;" parent="1" source="YbRW3t3wzOD-6tZSNNCx-19" target="YbRW3t3wzOD-6tZSNNCx-21" edge="1">
          <mxGeometry relative="1" as="geometry">
            <mxPoint x="540" y="545" as="targetPoint" />
          </mxGeometry>
        </mxCell>
        <mxCell id="YbRW3t3wzOD-6tZSNNCx-22" value="sibling" style="edgeLabel;html=1;align=center;verticalAlign=middle;resizable=0;points=[];" parent="YbRW3t3wzOD-6tZSNNCx-20" vertex="1" connectable="0">
          <mxGeometry x="0.1333" y="-2" relative="1" as="geometry">
            <mxPoint as="offset" />
          </mxGeometry>
        </mxCell>
        <mxCell id="YbRW3t3wzOD-6tZSNNCx-24" value="return" style="edgeStyle=none;rounded=0;orthogonalLoop=1;jettySize=auto;html=1;entryX=1;entryY=1;entryDx=0;entryDy=0;startArrow=none;startFill=0;" parent="1" source="YbRW3t3wzOD-6tZSNNCx-19" target="YbRW3t3wzOD-6tZSNNCx-10" edge="1">
          <mxGeometry relative="1" as="geometry" />
        </mxCell>
        <mxCell id="YbRW3t3wzOD-6tZSNNCx-19" value="c" style="ellipse;whiteSpace=wrap;html=1;aspect=fixed;labelBackgroundColor=none;" parent="1" vertex="1">
          <mxGeometry x="390" y="505" width="80" height="80" as="geometry" />
        </mxCell>
        <mxCell id="YbRW3t3wzOD-6tZSNNCx-25" value="return" style="edgeStyle=none;rounded=0;orthogonalLoop=1;jettySize=auto;html=1;startArrow=none;startFill=0;" parent="1" source="YbRW3t3wzOD-6tZSNNCx-21" edge="1">
          <mxGeometry relative="1" as="geometry">
            <mxPoint x="190" y="420" as="targetPoint" />
          </mxGeometry>
        </mxCell>
        <mxCell id="YbRW3t3wzOD-6tZSNNCx-21" value="d" style="ellipse;whiteSpace=wrap;html=1;aspect=fixed;labelBackgroundColor=none;" parent="1" vertex="1">
          <mxGeometry x="530" y="505" width="80" height="80" as="geometry" />
        </mxCell>
        <mxCell id="SqBip9i0tDZsBWBLQKwS-7" style="edgeStyle=orthogonalEdgeStyle;rounded=0;orthogonalLoop=1;jettySize=auto;html=1;" edge="1" parent="1" source="SqBip9i0tDZsBWBLQKwS-1" target="SqBip9i0tDZsBWBLQKwS-8">
          <mxGeometry relative="1" as="geometry">
            <mxPoint x="388" y="910" as="targetPoint" />
          </mxGeometry>
        </mxCell>
        <mxCell id="SqBip9i0tDZsBWBLQKwS-1" value="&lt;span style=&quot;color: rgb(153, 0, 0); font-family: Menlo, Monaco, Consolas, &amp;quot;Courier New&amp;quot;, monospace; font-weight: 700; text-align: start; background-color: rgb(248, 248, 248);&quot;&gt;batchedUpdates&lt;/span&gt;" style="rounded=0;whiteSpace=wrap;html=1;" vertex="1" parent="1">
          <mxGeometry x="310" y="770" width="156" height="60" as="geometry" />
        </mxCell>
        <mxCell id="SqBip9i0tDZsBWBLQKwS-6" style="edgeStyle=orthogonalEdgeStyle;rounded=0;orthogonalLoop=1;jettySize=auto;html=1;entryX=0.5;entryY=0;entryDx=0;entryDy=0;" edge="1" parent="1" source="SqBip9i0tDZsBWBLQKwS-5" target="SqBip9i0tDZsBWBLQKwS-1">
          <mxGeometry relative="1" as="geometry" />
        </mxCell>
        <mxCell id="SqBip9i0tDZsBWBLQKwS-9" style="edgeStyle=orthogonalEdgeStyle;rounded=0;orthogonalLoop=1;jettySize=auto;html=1;entryX=0;entryY=0.5;entryDx=0;entryDy=0;dashed=1;" edge="1" parent="1" source="SqBip9i0tDZsBWBLQKwS-5" target="SqBip9i0tDZsBWBLQKwS-8">
          <mxGeometry relative="1" as="geometry">
            <Array as="points">
              <mxPoint x="130" y="720" />
              <mxPoint x="130" y="890" />
            </Array>
          </mxGeometry>
        </mxCell>
        <mxCell id="SqBip9i0tDZsBWBLQKwS-10" value="设置为&amp;nbsp;&lt;span style=&quot;color: rgb(153, 0, 0); font-family: Menlo, Monaco, Consolas, &amp;quot;Courier New&amp;quot;, monospace; font-size: 12px; font-weight: 700; text-align: start; background-color: rgb(248, 248, 248);&quot;&gt;batchedUpdates$1&lt;/span&gt;" style="edgeLabel;html=1;align=center;verticalAlign=middle;resizable=0;points=[];" vertex="1" connectable="0" parent="SqBip9i0tDZsBWBLQKwS-9">
          <mxGeometry x="-0.2" relative="1" as="geometry">
            <mxPoint y="16" as="offset" />
          </mxGeometry>
        </mxCell>
        <mxCell id="SqBip9i0tDZsBWBLQKwS-5" value="&lt;span style=&quot;color: rgb(153, 0, 0); font-family: Menlo, Monaco, Consolas, &amp;quot;Courier New&amp;quot;, monospace; font-weight: 700; text-align: start; background-color: rgb(248, 248, 248);&quot;&gt;setBatchingImplementation&lt;/span&gt;" style="rounded=0;whiteSpace=wrap;html=1;" vertex="1" parent="1">
          <mxGeometry x="238" y="680" width="300" height="60" as="geometry" />
        </mxCell>
        <mxCell id="SqBip9i0tDZsBWBLQKwS-14" style="rounded=0;orthogonalLoop=1;jettySize=auto;html=1;" edge="1" parent="1" source="SqBip9i0tDZsBWBLQKwS-8" target="SqBip9i0tDZsBWBLQKwS-15">
          <mxGeometry relative="1" as="geometry">
            <mxPoint x="388" y="1030" as="targetPoint" />
          </mxGeometry>
        </mxCell>
        <mxCell id="SqBip9i0tDZsBWBLQKwS-46" style="edgeStyle=orthogonalEdgeStyle;rounded=0;orthogonalLoop=1;jettySize=auto;html=1;exitX=0;exitY=0.75;exitDx=0;exitDy=0;entryX=0;entryY=0.5;entryDx=0;entryDy=0;dashed=1;fontSize=14;fontColor=#000000;" edge="1" parent="1" source="SqBip9i0tDZsBWBLQKwS-8" target="SqBip9i0tDZsBWBLQKwS-12">
          <mxGeometry relative="1" as="geometry">
            <Array as="points">
              <mxPoint x="80" y="905" />
              <mxPoint x="80" y="1085" />
            </Array>
          </mxGeometry>
        </mxCell>
        <mxCell id="SqBip9i0tDZsBWBLQKwS-47" value="&lt;span style=&quot;font-size: 11px;&quot;&gt;将其放入&lt;/span&gt;&lt;span style=&quot;color: rgb(255, 80, 44); font-family: Menlo, Monaco, Consolas, &amp;quot;Courier New&amp;quot;, monospace; font-size: 13.92px; text-align: start; background-color: rgb(255, 245, 245);&quot;&gt;syncQueue&lt;/span&gt;" style="edgeLabel;html=1;align=center;verticalAlign=middle;resizable=0;points=[];fontSize=14;fontColor=#000000;" vertex="1" connectable="0" parent="SqBip9i0tDZsBWBLQKwS-46">
          <mxGeometry x="0.0164" y="-3" relative="1" as="geometry">
            <mxPoint as="offset" />
          </mxGeometry>
        </mxCell>
        <mxCell id="SqBip9i0tDZsBWBLQKwS-8" value="&lt;span style=&quot;color: rgb(153, 0, 0); font-family: Menlo, Monaco, Consolas, &amp;quot;Courier New&amp;quot;, monospace; font-weight: 700; text-align: start; background-color: rgb(248, 248, 248);&quot;&gt;batchedUpdatesImpl&lt;/span&gt;" style="rounded=0;whiteSpace=wrap;html=1;" vertex="1" parent="1">
          <mxGeometry x="282" y="860" width="212" height="60" as="geometry" />
        </mxCell>
        <mxCell id="SqBip9i0tDZsBWBLQKwS-17" style="edgeStyle=none;rounded=0;orthogonalLoop=1;jettySize=auto;html=1;" edge="1" parent="1" source="SqBip9i0tDZsBWBLQKwS-12" target="SqBip9i0tDZsBWBLQKwS-18">
          <mxGeometry relative="1" as="geometry">
            <mxPoint x="230" y="1340" as="targetPoint" />
          </mxGeometry>
        </mxCell>
        <mxCell id="SqBip9i0tDZsBWBLQKwS-12" value="&lt;span style=&quot;color: rgb(255, 80, 44); font-family: Menlo, Monaco, Consolas, &amp;quot;Courier New&amp;quot;, monospace; font-size: 13.92px; text-align: start; background-color: rgb(255, 245, 245);&quot;&gt;performSyncWorkOnRoot&lt;/span&gt;" style="rounded=0;whiteSpace=wrap;html=1;" vertex="1" parent="1">
          <mxGeometry x="247" y="1060" width="282" height="50" as="geometry" />
        </mxCell>
        <mxCell id="SqBip9i0tDZsBWBLQKwS-13" value="sync update" style="rounded=0;whiteSpace=wrap;html=1;fillColor=#d5e8d4;strokeColor=#82b366;" vertex="1" parent="1">
          <mxGeometry x="-200" y="650" width="120" height="60" as="geometry" />
        </mxCell>
        <mxCell id="SqBip9i0tDZsBWBLQKwS-16" style="edgeStyle=none;rounded=0;orthogonalLoop=1;jettySize=auto;html=1;" edge="1" parent="1" source="SqBip9i0tDZsBWBLQKwS-15" target="SqBip9i0tDZsBWBLQKwS-12">
          <mxGeometry relative="1" as="geometry" />
        </mxCell>
        <mxCell id="SqBip9i0tDZsBWBLQKwS-15" value="&lt;meta charset=&quot;utf-8&quot;&gt;&lt;span style=&quot;color: rgb(255, 80, 44); font-family: Menlo, Monaco, Consolas, &amp;quot;Courier New&amp;quot;, monospace; font-size: 13.92px; font-style: normal; font-variant-ligatures: normal; font-variant-caps: normal; font-weight: 400; letter-spacing: normal; orphans: 2; text-align: start; text-indent: 0px; text-transform: none; widows: 2; word-spacing: 0px; -webkit-text-stroke-width: 0px; background-color: rgb(255, 245, 245); text-decoration-thickness: initial; text-decoration-style: initial; text-decoration-color: initial; float: none; display: inline !important;&quot;&gt;flushSyncCallbacksOnlyInLegacyMode&lt;/span&gt;" style="rounded=0;whiteSpace=wrap;html=1;" vertex="1" parent="1">
          <mxGeometry x="300" y="960" width="322" height="60" as="geometry" />
        </mxCell>
        <mxCell id="SqBip9i0tDZsBWBLQKwS-19" style="edgeStyle=none;rounded=0;orthogonalLoop=1;jettySize=auto;html=1;entryX=0.5;entryY=0;entryDx=0;entryDy=0;" edge="1" parent="1" source="SqBip9i0tDZsBWBLQKwS-18" target="SqBip9i0tDZsBWBLQKwS-23">
          <mxGeometry relative="1" as="geometry">
            <mxPoint x="65" y="1360" as="targetPoint" />
          </mxGeometry>
        </mxCell>
        <mxCell id="SqBip9i0tDZsBWBLQKwS-29" style="edgeStyle=none;rounded=0;orthogonalLoop=1;jettySize=auto;html=1;fontColor=#000000;entryX=0;entryY=0.5;entryDx=0;entryDy=0;" edge="1" parent="1" source="SqBip9i0tDZsBWBLQKwS-18" target="SqBip9i0tDZsBWBLQKwS-31">
          <mxGeometry relative="1" as="geometry">
            <mxPoint x="510" y="1311.6883116883118" as="targetPoint" />
          </mxGeometry>
        </mxCell>
        <mxCell id="SqBip9i0tDZsBWBLQKwS-18" value="&lt;span style=&quot;color: rgb(153, 0, 0); font-family: Menlo, Monaco, Consolas, &amp;quot;Courier New&amp;quot;, monospace; font-weight: 700; text-align: start; background-color: rgb(248, 248, 248);&quot;&gt;renderRootSync&lt;/span&gt;" style="rounded=0;whiteSpace=wrap;html=1;" vertex="1" parent="1">
          <mxGeometry x="127" y="1130" width="120" height="60" as="geometry" />
        </mxCell>
        <mxCell id="SqBip9i0tDZsBWBLQKwS-20" value="" style="rounded=0;whiteSpace=wrap;html=1;" vertex="1" parent="1">
          <mxGeometry x="-148" y="1320" width="298" height="330" as="geometry" />
        </mxCell>
        <mxCell id="SqBip9i0tDZsBWBLQKwS-26" style="edgeStyle=none;rounded=0;orthogonalLoop=1;jettySize=auto;html=1;entryX=0.5;entryY=0;entryDx=0;entryDy=0;fontColor=#000000;" edge="1" parent="1" source="SqBip9i0tDZsBWBLQKwS-23" target="SqBip9i0tDZsBWBLQKwS-20">
          <mxGeometry relative="1" as="geometry" />
        </mxCell>
        <mxCell id="SqBip9i0tDZsBWBLQKwS-23" value="&lt;font style=&quot;font-family: Menlo, Monaco, Consolas, &amp;quot;Courier New&amp;quot;, monospace; font-weight: 700; text-align: start;&quot; color=&quot;#990000&quot;&gt;workLoopSync&lt;/font&gt;&lt;br style=&quot;font-family: Menlo, Monaco, Consolas, &amp;quot;Courier New&amp;quot;, monospace; font-weight: 700; text-align: start;&quot;&gt;&lt;span style=&quot;font-family: Menlo, Monaco, Consolas, &amp;quot;Courier New&amp;quot;, monospace; font-weight: 700; text-align: start; background-color: rgb(248, 248, 248);&quot;&gt;开始遍历 fiber tree&lt;/span&gt;" style="rounded=0;whiteSpace=wrap;html=1;fontColor=#000000;" vertex="1" parent="1">
          <mxGeometry x="-70" y="1210" width="190" height="60" as="geometry" />
        </mxCell>
        <mxCell id="SqBip9i0tDZsBWBLQKwS-25" value="&lt;span style=&quot;color: rgb(153, 0, 0); font-family: Menlo, Monaco, Consolas, &amp;quot;Courier New&amp;quot;, monospace; font-weight: 700; text-align: start; background-color: rgb(248, 248, 248);&quot;&gt;performUnitOfWork&lt;/span&gt;" style="rounded=1;whiteSpace=wrap;html=1;fontColor=#000000;" vertex="1" parent="1">
          <mxGeometry x="-270" y="1300" width="160" height="50" as="geometry" />
        </mxCell>
        <mxCell id="SqBip9i0tDZsBWBLQKwS-27" value="&lt;span style=&quot;font-family: Menlo, Monaco, Consolas, &amp;quot;Courier New&amp;quot;, monospace; text-align: start; background-color: rgb(248, 248, 248);&quot;&gt;&lt;font style=&quot;font-weight: 700;&quot; color=&quot;#990000&quot;&gt;beginWork$1：&lt;/font&gt;&lt;br&gt;处理 diff 逻辑，给 fiber 标记上 Placement 和 ChildDelete&lt;br&gt;&lt;/span&gt;" style="rounded=0;whiteSpace=wrap;html=1;fontColor=#000000;" vertex="1" parent="1">
          <mxGeometry x="-108.5" y="1360" width="219" height="60" as="geometry" />
        </mxCell>
        <mxCell id="SqBip9i0tDZsBWBLQKwS-28" value="&lt;span style=&quot;font-family: Menlo, Monaco, Consolas, &amp;quot;Courier New&amp;quot;, monospace; text-align: start; background-color: rgb(248, 248, 248);&quot;&gt;&lt;font style=&quot;font-weight: 700;&quot; color=&quot;#990000&quot;&gt;completeUnitOfWork：&lt;/font&gt;&lt;br&gt;比对新旧 fiber，给 fiber 标记上 Update&lt;br&gt;&lt;/span&gt;" style="rounded=0;whiteSpace=wrap;html=1;fontColor=#000000;" vertex="1" parent="1">
          <mxGeometry x="-133.5" y="1510" width="269" height="60" as="geometry" />
        </mxCell>
        <mxCell id="SqBip9i0tDZsBWBLQKwS-32" style="edgeStyle=none;rounded=0;orthogonalLoop=1;jettySize=auto;html=1;fontSize=14;fontColor=#000000;" edge="1" parent="1" source="SqBip9i0tDZsBWBLQKwS-31" target="SqBip9i0tDZsBWBLQKwS-33">
          <mxGeometry relative="1" as="geometry">
            <mxPoint x="700" y="1390" as="targetPoint" />
          </mxGeometry>
        </mxCell>
        <mxCell id="SqBip9i0tDZsBWBLQKwS-31" value="commitRoot" style="rounded=0;whiteSpace=wrap;html=1;fontSize=14;fontColor=#000000;" vertex="1" parent="1">
          <mxGeometry x="650" y="1130" width="120" height="60" as="geometry" />
        </mxCell>
        <mxCell id="SqBip9i0tDZsBWBLQKwS-34" style="edgeStyle=none;rounded=0;orthogonalLoop=1;jettySize=auto;html=1;fontSize=14;fontColor=#000000;" edge="1" parent="1" source="SqBip9i0tDZsBWBLQKwS-33" target="SqBip9i0tDZsBWBLQKwS-35">
          <mxGeometry relative="1" as="geometry">
            <mxPoint x="712" y="1310" as="targetPoint" />
          </mxGeometry>
        </mxCell>
        <mxCell id="SqBip9i0tDZsBWBLQKwS-33" value="&lt;span style=&quot;color: rgb(255, 80, 44); font-family: Menlo, Monaco, Consolas, &amp;quot;Courier New&amp;quot;, monospace; font-size: 13.92px; text-align: start; background-color: rgb(255, 245, 245);&quot;&gt;commitRootImpl&lt;/span&gt;" style="rounded=0;whiteSpace=wrap;html=1;fontSize=14;fontColor=#000000;" vertex="1" parent="1">
          <mxGeometry x="682" y="1220" width="210" height="60" as="geometry" />
        </mxCell>
        <mxCell id="SqBip9i0tDZsBWBLQKwS-36" style="edgeStyle=none;rounded=0;orthogonalLoop=1;jettySize=auto;html=1;fontSize=14;fontColor=#000000;entryX=0.45;entryY=0;entryDx=0;entryDy=0;entryPerimeter=0;" edge="1" parent="1" source="SqBip9i0tDZsBWBLQKwS-35" target="SqBip9i0tDZsBWBLQKwS-41">
          <mxGeometry relative="1" as="geometry">
            <mxPoint x="776" y="1380" as="targetPoint" />
          </mxGeometry>
        </mxCell>
        <mxCell id="SqBip9i0tDZsBWBLQKwS-35" value="&lt;span style=&quot;color: rgb(255, 80, 44); font-family: Menlo, Monaco, Consolas, &amp;quot;Courier New&amp;quot;, monospace; font-size: 13.92px; text-align: start; background-color: rgb(255, 245, 245);&quot;&gt;commitMutationEffects&lt;/span&gt;" style="rounded=0;whiteSpace=wrap;html=1;fontSize=14;fontColor=#000000;" vertex="1" parent="1">
          <mxGeometry x="472" y="1310" width="260" height="50" as="geometry" />
        </mxCell>
        <mxCell id="SqBip9i0tDZsBWBLQKwS-41" value="" style="rounded=0;whiteSpace=wrap;html=1;fontSize=14;fontColor=#000000;" vertex="1" parent="1">
          <mxGeometry x="644" y="1420" width="438" height="360" as="geometry" />
        </mxCell>
        <mxCell id="SqBip9i0tDZsBWBLQKwS-42" value="&lt;span style=&quot;color: rgb(153, 0, 0); font-family: Menlo, Monaco, Consolas, &amp;quot;Courier New&amp;quot;, monospace; font-size: 12px; font-weight: 700; text-align: start; background-color: rgb(248, 248, 248);&quot;&gt;recursivelyTraverseMutationEffects&lt;br&gt;&lt;/span&gt;&lt;span style=&quot;color: rgb(153, 153, 136); font-family: Menlo, Monaco, Consolas, &amp;quot;Courier New&amp;quot;, monospace; font-size: 12px; font-style: italic; text-align: start; background-color: rgb(248, 248, 248);&quot;&gt;处理 ChildDeletion&lt;/span&gt;&lt;span style=&quot;color: rgb(153, 0, 0); font-family: Menlo, Monaco, Consolas, &amp;quot;Courier New&amp;quot;, monospace; font-size: 12px; font-weight: 700; text-align: start; background-color: rgb(248, 248, 248);&quot;&gt;&lt;br&gt;&lt;/span&gt;" style="rounded=0;whiteSpace=wrap;html=1;fontSize=14;fontColor=#000000;" vertex="1" parent="1">
          <mxGeometry x="722" y="1460" width="270" height="50" as="geometry" />
        </mxCell>
        <mxCell id="SqBip9i0tDZsBWBLQKwS-43" value="&lt;span style=&quot;color: rgb(153, 0, 0); font-family: Menlo, Monaco, Consolas, &amp;quot;Courier New&amp;quot;, monospace; font-size: 12px; font-weight: 700; text-align: start; background-color: rgb(248, 248, 248);&quot;&gt;commitReconciliationEffects&lt;br&gt;&lt;/span&gt;&lt;span style=&quot;color: rgb(153, 153, 136); font-family: Menlo, Monaco, Consolas, &amp;quot;Courier New&amp;quot;, monospace; font-size: 12px; font-style: italic; text-align: start; background-color: rgb(248, 248, 248);&quot;&gt;处理 Placement&lt;/span&gt;&lt;span style=&quot;color: rgb(153, 0, 0); font-family: Menlo, Monaco, Consolas, &amp;quot;Courier New&amp;quot;, monospace; font-size: 12px; font-weight: 700; text-align: start; background-color: rgb(248, 248, 248);&quot;&gt;&lt;br&gt;&lt;/span&gt;" style="rounded=0;whiteSpace=wrap;html=1;fontSize=14;fontColor=#000000;" vertex="1" parent="1">
          <mxGeometry x="724" y="1560" width="278" height="60" as="geometry" />
        </mxCell>
        <mxCell id="SqBip9i0tDZsBWBLQKwS-44" value="&lt;span style=&quot;color: rgb(153, 0, 0); font-family: Menlo, Monaco, Consolas, &amp;quot;Courier New&amp;quot;, monospace; font-size: 12px; font-weight: 700; text-align: start; background-color: rgb(248, 248, 248);&quot;&gt;commitUpdate&lt;br&gt;&lt;/span&gt;&lt;span style=&quot;color: rgb(153, 153, 136); font-family: Menlo, Monaco, Consolas, &amp;quot;Courier New&amp;quot;, monospace; font-size: 12px; font-style: italic; text-align: start; background-color: rgb(248, 248, 248);&quot;&gt;处理 Update&lt;/span&gt;&lt;span style=&quot;color: rgb(153, 0, 0); font-family: Menlo, Monaco, Consolas, &amp;quot;Courier New&amp;quot;, monospace; font-size: 12px; font-weight: 700; text-align: start; background-color: rgb(248, 248, 248);&quot;&gt;&lt;br&gt;&lt;/span&gt;" style="rounded=0;whiteSpace=wrap;html=1;fontSize=14;fontColor=#000000;" vertex="1" parent="1">
          <mxGeometry x="802" y="1670" width="140" height="60" as="geometry" />
        </mxCell>
        <mxCell id="SqBip9i0tDZsBWBLQKwS-39" value="fiber 为&amp;nbsp;&lt;span style=&quot;color: rgb(153, 0, 0); font-family: Menlo, Monaco, Consolas, &amp;quot;Courier New&amp;quot;, monospace; font-size: 12px; font-weight: 700; text-align: start;&quot;&gt;HostComponent&lt;/span&gt;&lt;span style=&quot;color: rgb(153, 0, 0); font-family: Menlo, Monaco, Consolas, &amp;quot;Courier New&amp;quot;, monospace; font-size: 12px; font-weight: 700; text-align: start;&quot;&gt; &lt;/span&gt;&lt;span style=&quot;font-family: Menlo, Monaco, Consolas, &amp;quot;Courier New&amp;quot;, monospace; font-size: 12px; text-align: start;&quot;&gt;的情况&lt;/span&gt;" style="rounded=1;whiteSpace=wrap;html=1;fontSize=14;fillColor=#d5e8d4;strokeColor=#82b366;" vertex="1" parent="1">
          <mxGeometry x="447" y="1460" width="225" height="30" as="geometry" />
        </mxCell>
        <mxCell id="SqBip9i0tDZsBWBLQKwS-45" value="&lt;span style=&quot;color: rgb(255, 80, 44); font-family: Menlo, Monaco, Consolas, &amp;quot;Courier New&amp;quot;, monospace; font-size: 13.92px; text-align: start; background-color: rgb(255, 245, 245);&quot;&gt;commitMutationEffectsOnFiber&lt;/span&gt;" style="rounded=1;whiteSpace=wrap;html=1;labelBackgroundColor=none;fontSize=14;fontColor=#000000;" vertex="1" parent="1">
          <mxGeometry x="414" y="1400" width="258" height="50" as="geometry" />
        </mxCell>
      </root>
    </mxGraphModel>
  </diagram>
</mxfile>
